<svg xmlns="http://www.w3.org/2000/svg" version="1.1" xmlns:xlink="http://www.w3.org/1999/xlink" xmlns:svgjs="http://svgjs.dev/svgjs" width="128" height="128" viewBox="0 0 128 128"><g transform="matrix(0.8046875,0,0,0.8046875,12.760752631578946,12.760752631578946)"><svg viewBox="0 0 95 95" data-background-color="#ffffff" preserveAspectRatio="xMidYMid meet" height="128" width="128" xmlns="http://www.w3.org/2000/svg" xmlns:xlink="http://www.w3.org/1999/xlink"><g id="tight-bounds" transform="matrix(1,0,0,1,-0.24049999999999727,-0.24049999999999727)"><svg viewBox="0 0 95.481 95.481" height="95.481" width="95.481"><g><svg viewBox="0 0 95.481 95.481" height="95.481" width="95.481"><g><svg viewBox="0 0 95.481 95.481" height="95.481" width="95.481"><g id="textblocktransform"><svg viewBox="0 0 95.481 95.481" height="95.481" width="95.481" id="textblock"><g><svg viewBox="0 0 95.481 95.481" height="95.481" width="95.481"><g><svg viewBox="0 0 95.481 95.481" height="95.481" width="95.481"><g><svg xmlns="http://www.w3.org/2000/svg" xmlns:xlink="http://www.w3.org/1999/xlink" version="1.1" x="0" y="0" viewBox="3 3 58 58" style="enable-background:new 0 0 64 64;" xml:space="preserve" height="95.481" width="95.481" class="icon-icon-0" data-fill-palette-color="accent" id="icon-0"><g fill="#4299e1" data-fill-palette-color="accent"><path d="M35.171 55H28.83c0.686 1.522 1.768 2.841 3.17 3.811C33.404 57.841 34.486 56.522 35.171 55z" fill="#4299e1" data-fill-palette-color="accent"></path><path d="M33.738 51.079l-0.037-0.149C33.47 50.962 33.24 51 33 51h-2c-0.24 0-0.471-0.038-0.702-0.071l-0.037 0.149c-0.211 0.846-0.779 1.532-1.533 1.922h6.539C34.517 52.609 33.95 51.924 33.738 51.079z" fill="#4299e1" data-fill-palette-color="accent"></path><path d="M36 42h-2.859c-1.675 0-3.23-0.833-4.16-2.227l-0.44-0.661C28.22 39.279 28 39.614 28 40v6c0 1.654 1.346 3 3 3h2c1.654 0 3-1.346 3-3V42z" fill="#4299e1" data-fill-palette-color="accent"></path><path d="M32 33c-4.411 0-8 3.589-8 8v1.292c0 2.581-0.61 5.165-1.764 7.472-0.154 0.309-0.236 0.655-0.236 1 0 1.026 0.693 1.896 1.655 2.154 0.863-0.611 1.844-1.078 2.921-1.345l1.018-0.253c0.359-0.09 0.639-0.368 0.728-0.727l0.085-0.34C26.969 49.374 26 47.804 26 46v-6c0-1.654 1.346-3 3-3h0.535l1.109 1.664c0.528 0.792 1.397 1.267 2.341 1.317L31.2 37.6l1.6-1.2 1.8 2.4c0.356 0.474 0.852 0.81 1.4 1.006V38h2v8c0 1.804-0.97 3.374-2.406 4.254l0.085 0.34c0.09 0.359 0.367 0.637 0.724 0.727l1.034 0.259c1.07 0.268 2.047 0.733 2.906 1.341C41.307 52.664 42 51.794 42 50.764c0-0.345-0.082-0.691-0.236-1C40.61 47.457 40 44.873 40 42.292V41C40 36.589 36.411 33 32 33z" fill="#4299e1" data-fill-palette-color="accent"></path><path d="M28.053 24.467L26.586 23h-3.244L6.801 35.406c-0.428 0.32-0.704 0.788-0.779 1.317-0.076 0.53 0.059 1.056 0.38 1.483 0.638 0.85 1.951 1.038 2.801 0.398 0.071-0.053 3.598-2.698 7.927-5.945L28.053 24.467z" fill="#4299e1" data-fill-palette-color="accent"></path><path d="M26.309 53.768C23.743 54.739 22 57.182 22 59.983V61h9.764l-0.211-0.105C28.849 59.274 27.004 56.727 26.309 53.768z" fill="#4299e1" data-fill-palette-color="accent"></path><path d="M37.692 53.773c-0.695 2.957-2.534 5.498-5.177 7.084L32.277 61H42v-1C42.004 57.195 40.262 54.747 37.692 53.773z" fill="#4299e1" data-fill-palette-color="accent"></path><path d="M31.586 27c-0.637 0-1.259-0.258-1.708-0.708l-0.397-0.397L14 37.506V61h6v-1.017c0-2.116 0.766-4.077 2.057-5.601C20.821 53.638 20 52.296 20 50.764c0-0.654 0.154-1.309 0.447-1.895C21.463 46.839 22 44.564 22 42.292V41c0-5.514 4.486-10 10-10s10 4.486 10 10v1.292c0 2.272 0.537 4.547 1.553 6.578C43.846 49.455 44 50.11 44 50.764c0 1.537-0.821 2.877-2.059 3.62 1.296 1.528 2.063 3.496 2.059 5.617V61h6V37.506L33.851 25.394C33.516 26.327 32.632 27 31.586 27z" fill="#4299e1" data-fill-palette-color="accent"></path><path d="M52 3H12c-4.963 0-9 4.038-9 9s4.037 9 9 9h15.414l3.879 3.879C31.531 25.117 32 24.924 32 24.586V21h20c4.963 0 9-4.038 9-9S56.963 3 52 3zM56 13c0 0.552-0.448 1-1 1h-1v3c0 0.552-0.448 1-1 1h-2c-0.552 0-1-0.448-1-1v-3h-4v3c0 0.552-0.448 1-1 1h-2c-0.552 0-1-0.448-1-1v-3H19.651c-0.825 2.329-3.04 4-5.651 4-3.737 0-6.675-3.416-5.864-7.295 0.478-2.286 2.34-4.125 4.631-4.582C15.894 5.5 18.699 7.312 19.651 10H55c0.552 0 1 0.448 1 1V13z" fill="#4299e1" data-fill-palette-color="accent"></path><circle cx="14" cy="12" r="2.0" fill="#4299e1" data-fill-palette-color="accent"></circle><path d="M57.2 35.407L40.659 23H34v0.007c6.494 4.87 20.663 15.497 20.795 15.595 0.857 0.648 2.167 0.455 2.804-0.394 0.322-0.428 0.457-0.955 0.381-1.483C57.904 36.194 57.628 35.727 57.2 35.407z" fill="#4299e1" data-fill-palette-color="accent"></path></g></svg></g></svg></g></svg></g></svg></g></svg></g></svg></g><defs></defs></svg><rect width="95.481" height="95.481" fill="none" stroke="none" visibility="hidden"></rect></g></svg></g></svg>